<svg width="133" height="44" viewBox="0 0 133 44" fill="none" xmlns="http://www.w3.org/2000/svg">
<path d="M32.5602 15.4605H17.1064V20.0462H28.0664C27.5252 26.4771 22.175 29.2192 17.125 29.2192C10.6644 29.2192 5.02626 24.1357 5.02626 17.0103C5.02626 10.0694 10.4008 4.72354 17.1394 4.72354C22.3385 4.72354 25.4016 8.03809 25.4016 8.03809L28.6128 4.71329C28.6128 4.71329 24.4915 0.125 16.9754 0.125C7.40421 0.125 0 8.20312 0 16.9284C0 25.4787 6.96465 33.8153 17.2194 33.8153C26.2379 33.8153 32.8399 27.6368 32.8399 18.501C32.8399 16.5733 32.5597 15.4594 32.5597 15.4594L32.5602 15.4605Z" fill="#F5F5F5"/>
<path d="M45.2216 12.1394C38.8804 12.1394 34.3359 17.0972 34.3359 22.879C34.3359 28.7462 38.7441 33.7958 45.2959 33.7958C51.2271 33.7958 56.0868 29.2622 56.0868 23.0048C56.0868 15.8331 50.4342 12.1394 45.2216 12.1394ZM45.2846 16.3928C48.4029 16.3928 51.3577 18.9138 51.3577 22.9764C51.3577 26.9528 48.4153 29.5455 45.2702 29.5455C41.8144 29.5455 39.0882 26.7779 39.0882 22.9449C39.0882 19.1939 41.7809 16.3928 45.2846 16.3928Z" fill="#F5F5F5"/>
<path d="M68.893 12.1394C62.5522 12.1394 58.0078 17.0972 58.0078 22.879C58.0078 28.7462 62.4155 33.7958 68.9678 33.7958C74.8992 33.7958 79.7582 29.2622 79.7582 23.0048C79.7582 15.8331 74.1061 12.1394 68.893 12.1394ZM68.9565 16.3928C72.0744 16.3928 75.0297 18.9138 75.0297 22.9764C75.0297 26.9528 72.0872 29.5455 68.942 29.5455C65.4864 29.5455 62.7601 26.7779 62.7601 22.9449C62.7601 19.1939 65.4523 16.3928 68.9565 16.3928Z" fill="#F5F5F5"/>
<path d="M92.1138 12.1519C86.2936 12.1519 81.7188 17.2498 81.7188 22.9718C81.7188 29.4892 87.0225 33.8113 92.0137 33.8113C95.0995 33.8113 96.7408 32.5865 97.9522 31.1799V33.3155C97.9522 37.0509 95.6842 39.288 92.2604 39.288C88.9527 39.288 87.2939 36.8291 86.7172 35.4334L82.5556 37.1732C84.0322 40.2948 87.004 43.5504 92.2944 43.5504C98.0817 43.5504 102.492 39.9051 102.492 32.2604V12.803H97.9522V14.6371C96.5561 13.1331 94.6471 12.1523 92.1138 12.1523V12.1519ZM92.5354 16.3965C95.389 16.3965 98.319 18.8333 98.319 22.9945C98.319 27.2242 95.3951 29.5552 92.4719 29.5552C89.369 29.5552 86.4819 27.0353 86.4819 23.0347C86.4819 18.8777 89.4805 16.3965 92.5354 16.3965Z" fill="#F5F5F5"/>
<path d="M122.678 12.125C117.188 12.125 112.578 16.4936 112.578 22.9387C112.578 29.7596 117.716 33.8047 123.206 33.8047C127.787 33.8047 130.599 31.2982 132.277 29.0522L128.534 26.5618C127.562 28.0694 125.938 29.5424 123.229 29.5424C120.185 29.5424 118.785 27.8753 117.918 26.261L132.437 20.2363L131.683 18.4707C130.28 15.0132 127.008 12.1261 122.679 12.1261L122.678 12.125ZM122.867 16.2898C124.846 16.2898 126.27 17.3412 126.874 18.6028L117.178 22.6555C116.76 19.5176 119.733 16.2898 122.867 16.2898Z" fill="#F5F5F5"/>
<path d="M105.656 33.1617H110.426V1.24512H105.656V33.1617Z" fill="#F5F5F5"/>
</svg>
