<svg width="153" height="44" viewBox="0 0 153 44" fill="none" xmlns="http://www.w3.org/2000/svg">
<path d="M152.72 39.5874C152.72 41.9851 150.784 43.9286 148.393 43.9286H114.131C111.741 43.9286 109.805 41.9851 109.805 39.5874V4.84518C109.805 2.44763 111.741 0.503906 114.131 0.503906H148.393C150.784 0.503906 152.72 2.44763 152.72 4.84518V39.5874Z" fill="#F5F5F5"/>
<path d="M0 9.25977H5.7738V30.0009H15.954V34.863H0V9.25977Z" fill="#F5F5F5"/>
<path d="M23.9672 11.1216C23.9672 12.7166 22.7898 14.0084 20.8526 14.0084C19.0292 14.0084 17.8516 12.7166 17.8516 11.1216C17.8516 9.48817 19.0674 8.23462 20.9287 8.23462C22.7898 8.23462 23.9295 9.48817 23.9672 11.1216ZM18.0036 34.863V16.2875H23.7777V34.863H18.0036Z" fill="#F5F5F5"/>
<path d="M27.2301 22.2133C27.2301 19.8964 27.1542 17.9593 27.0781 16.2874H32.0922L32.3585 18.8707H32.4727C33.2321 17.6549 35.0934 15.8696 38.2079 15.8696C42.007 15.8696 44.8561 18.415 44.8561 23.8848V34.863H39.0818V24.5685C39.0818 22.1755 38.2464 20.5423 36.1572 20.5423C34.5615 20.5423 33.612 21.6439 33.1939 22.7072C33.0422 23.0871 33.0045 23.6188 33.0045 24.151V34.863H27.2301V22.2133Z" fill="#F5F5F5"/>
<path d="M54.0868 24.1128H54.1628C54.5808 23.3149 55.0367 22.5554 55.4924 21.8717L59.2527 16.2874H66.2042L59.5567 23.8087L67.1536 34.863H60.0506L55.5298 27.2273L54.0868 29.0508V34.863H48.3125V7.89258H54.0868V24.1128Z" fill="#F5F5F5"/>
<path d="M71.6332 27.4176C71.7852 29.8106 74.1779 30.9504 76.8752 30.9504C78.8506 30.9504 80.4458 30.6843 82.0039 30.1526L82.7631 34.0652C80.8636 34.863 78.5468 35.2429 76.0397 35.2429C69.7337 35.2429 66.125 31.5963 66.125 25.7841C66.125 21.074 69.0504 15.8696 75.5073 15.8696C81.5095 15.8696 83.7887 20.5423 83.7887 25.1384C83.7887 26.1259 83.6744 26.9995 83.5986 27.4176H71.6332ZM78.4325 23.4668C78.4325 22.0615 77.8249 19.7061 75.1659 19.7061C72.7347 19.7061 71.7469 21.948 71.595 23.4668H78.4325Z" fill="#F5F5F5"/>
<path d="M104.077 7.89258V29.3171C104.077 31.4061 104.153 33.6096 104.229 34.863H99.1005L98.8729 32.1659H98.7594C97.6198 34.217 95.3403 35.2813 92.9474 35.2813C88.5412 35.2813 85.0081 31.5204 85.0081 25.7462C84.9705 19.4782 88.8832 15.8319 93.327 15.8319C95.6441 15.8319 97.3916 16.6674 98.2271 17.9209H98.3031V7.89258H104.077ZM98.3031 24.1509C98.3031 23.8466 98.3031 23.429 98.2271 23.087C97.8856 21.568 96.6323 20.2762 94.8469 20.2762C92.1873 20.2762 90.8578 22.6313 90.8578 25.5564C90.8578 28.7088 92.4158 30.6842 94.8087 30.6842C96.48 30.6842 97.8474 29.545 98.1894 27.9118C98.2656 27.4937 98.3031 27.0382 98.3031 26.582V24.1509Z" fill="#F5F5F5"/>
<path d="M123.772 11.1214C123.772 12.7164 122.594 14.0081 120.657 14.0081C118.834 14.0081 117.656 12.7164 117.656 11.1214C117.656 9.48793 118.872 8.23438 120.733 8.23438C122.594 8.23438 123.734 9.48793 123.772 11.1214ZM117.808 34.8627V16.2873H123.582V34.8627H117.808Z" fill="#1668E8"/>
<path d="M127.034 22.213C127.034 19.8961 126.959 17.9591 126.883 16.2872H131.897L132.163 18.8704H132.277C133.036 17.6546 134.898 15.8694 138.013 15.8694C141.811 15.8694 144.66 18.4147 144.66 23.8846V34.8627H138.886V24.5683C138.886 22.1753 138.05 20.5421 135.961 20.5421C134.366 20.5421 133.417 21.6436 132.999 22.7069C132.846 23.0869 132.808 23.6186 132.808 24.1507V34.8627H127.034V22.213Z" fill="#1668E8"/>
</svg>
