<svg width="155" height="52" viewBox="0 0 155 52" fill="none" xmlns="http://www.w3.org/2000/svg">
<path d="M91.1096 15.6062H91.0984C85.2748 15.6062 80.5625 20.3297 80.5625 26.1424C80.5625 31.9662 85.2748 36.6897 91.0984 36.6897C96.9221 36.6897 101.646 31.9773 101.646 26.1535C101.646 20.3297 96.9332 15.6062 91.1096 15.6062ZM95.5662 30.6214C93.0878 33.0887 89.0868 33.0776 86.6196 30.6103C84.1634 28.1429 84.1634 24.1419 86.6196 21.6745C89.0868 19.1961 93.0878 19.1961 95.5662 21.6634L95.5773 21.6745C98.0557 24.1419 98.0446 28.1541 95.5662 30.6214Z" fill="#F5F5F5"/>
<path d="M78.4501 32.5322L77.3943 32.4766H67.9031L80.5617 19.8176L80.5062 18.7618C80.4617 17.0613 79.0947 15.6943 77.3943 15.6498L76.3385 15.5942H60.5234L60.579 16.6501C60.6568 18.3283 62.0016 19.6843 63.6909 19.7621L64.7467 19.8176H74.238L61.5793 32.4766L61.6348 33.5325C61.6904 35.2218 63.0574 36.5888 64.7467 36.6444L65.8025 36.7H81.6176L81.562 35.6441C81.4175 33.8992 80.1839 32.6322 78.4501 32.5322Z" fill="#F5F5F5"/>
<path d="M145.95 15.6056C143.527 15.6056 141.227 16.6503 139.626 18.4619C136.826 15.2832 132.091 14.672 128.579 17.0504C127.768 16.1279 125.923 15.6056 124.867 15.6056V36.7002L125.923 36.6446C127.679 36.5335 128.968 35.2887 129.035 33.5326L129.09 32.4768V25.097L129.146 24.0412C129.146 23.3077 129.335 22.5852 129.668 21.9295C130.824 19.9178 133.403 19.2288 135.425 20.3957C136.059 20.7625 136.592 21.296 136.959 21.9295H136.948C137.293 22.5852 137.47 23.3077 137.47 24.0412L137.526 25.097V32.4768L137.581 33.5326C137.648 35.222 138.993 36.5779 140.682 36.6446L141.738 36.7002V25.097L141.794 24.0412C141.794 23.2965 141.971 22.5741 142.316 21.9184C143.483 19.9067 146.073 19.2176 148.084 20.3957C148.718 20.7625 149.251 21.296 149.618 21.9295C149.951 22.5852 150.129 23.3077 150.129 24.0412L150.185 25.097V32.4768L150.24 33.5326C150.296 35.222 151.652 36.5779 153.341 36.6446L154.397 36.7002V24.0412C154.386 19.3844 150.607 15.6056 145.95 15.6056Z" fill="#F5F5F5"/>
<path d="M120.709 18.6959C118.73 16.7176 116.052 15.6062 113.251 15.6062C110.45 15.6062 107.772 16.7176 105.794 18.6959C101.682 22.8193 101.682 29.4989 105.805 33.6111C109.928 37.7233 116.608 37.7233 120.72 33.6C124.843 29.4878 124.832 22.8082 120.709 18.6959ZM117.719 30.6214C115.24 33.0887 111.24 33.0776 108.772 30.6103C106.316 28.1429 106.316 24.1419 108.772 21.6745C111.24 19.1961 115.24 19.1961 117.719 21.6634L117.73 21.6745C120.208 24.1419 120.197 28.1541 117.719 30.6214Z" fill="#F5F5F5"/>
<path d="M0.679688 0.579834H51.8256V51.7271H0.679688V0.579834Z" fill="#F5F5F5"/>
<path d="M9.10938 16.3955H42.8622V35.9008H9.10938V16.3955Z" fill="#1668E8"/>
</svg>
